<?xml version="1.0" encoding="UTF-8"?>
<!-- Generator: visioncortex VTracer -->
<svg id="svg" version="1.1" xmlns="http://www.w3.org/2000/svg" viewBox="0 0 512 512" style="display: block;"><path d="M0 0 C3.13313427 0.00020665 6.26625974 -0.00533961 9.39938974 -0.01005757 C15.51917949 -0.01830879 21.63895959 -0.0211099 27.75875443 -0.02166995 C32.74246794 -0.02214783 37.72617832 -0.02421605 42.70989084 -0.02737057 C56.89251735 -0.03616271 71.07513634 -0.04079231 85.25776559 -0.0400401 C86.40090833 -0.03998016 86.40090833 -0.03998016 87.56714487 -0.03991902 C88.33018905 -0.03987814 89.09323323 -0.03983726 89.87939996 -0.03979514 C102.22692005 -0.03938926 114.57440957 -0.04894782 126.92192084 -0.06305739 C139.65209863 -0.07748742 152.38226158 -0.08432392 165.11244774 -0.08346361 C172.2385597 -0.08313388 179.36463961 -0.08578153 186.49074411 -0.09664166 C192.5609464 -0.10583454 198.63110213 -0.10785108 204.70130843 -0.10113224 C207.78675062 -0.0979104 210.87210395 -0.0976487 213.95753717 -0.10648549 C235.32055777 -0.15633502 256.57311451 0.57162392 277.42993784 5.58776653 C285.35693934 7.61070188 292.5501649 10.45102501 299.77173471 14.30090129 C306.98996217 18.29054206 313.41583338 22.68800086 319.61499643 28.14538372 C320.82349253 29.15665325 320.82349253 29.15665325 322.05640268 30.18835247 C329.00986635 36.16245505 335.15698079 42.7770626 340.61499643 50.14538372 C346.08793907 58.03970167 350.81980386 66.53751961 354.33765268 75.48522747 C358.28187137 86.29126566 360.16890162 97.78991846 361.40966499 109.18627536 C362.81713427 122.61522104 362.76594651 136.04277898 362.76038015 149.53038728 C362.7601735 152.66352155 362.76571976 155.79664702 362.77043772 158.92977703 C362.77868894 165.04956677 362.78149005 171.16934687 362.7820501 177.28914171 C362.78252798 182.27285523 362.78459619 187.25656561 362.78775072 192.24027812 C362.79654285 206.42290463 362.80117246 220.60552362 362.80042025 234.78815287 C362.80036031 235.93129562 362.80036031 235.93129562 362.80029917 237.09753215 C362.80023785 238.24209842 362.80023785 238.24209842 362.80017529 239.40978724 C362.79976941 251.75730733 362.80932797 264.10479685 362.82343753 276.45230812 C362.83786757 289.18248591 362.84470407 301.91264886 362.84384376 314.64283502 C362.84351402 321.76894698 362.84616168 328.89502689 362.85702181 336.0211314 C362.86621469 342.09133368 362.86823123 348.16148941 362.86151239 354.23169571 C362.85829055 357.3171379 362.85802885 360.40249123 362.86686563 363.48792446 C362.91671517 384.85094506 362.18875623 406.10350179 357.17261362 426.96032512 C355.14967826 434.88732663 352.30935514 442.08055218 348.45947886 449.302122 C344.46983809 456.52034945 340.07237929 462.94622067 334.61499643 469.14538372 C333.94081675 469.95104778 333.26663706 470.75671184 332.57202768 471.58678997 C326.5979251 478.54025363 319.98331755 484.68736807 312.61499643 490.14538372 C304.72067848 495.61832635 296.22286054 500.35019114 287.27515268 503.86803997 C276.46911449 507.81225866 264.97046169 509.6992889 253.57410479 510.94005227 C240.14515911 512.34752155 226.71760117 512.29633379 213.22999287 512.29076743 C210.0968586 512.29056078 206.96373313 512.29610704 203.83060312 512.300825 C197.71081338 512.30907622 191.59103328 512.31187733 185.47123843 512.31243738 C180.48752492 512.31291526 175.50381454 512.31498348 170.52010202 512.318138 C156.33747552 512.32693014 142.15485653 512.33155974 127.97222728 512.33080753 C126.82908453 512.3307476 126.82908453 512.3307476 125.662848 512.33068645 C124.89980382 512.33064557 124.13675964 512.33060469 123.35059291 512.33056257 C111.00307281 512.33015669 98.65558329 512.33971526 86.30807203 512.35382482 C73.57789424 512.36825486 60.84773129 512.37509135 48.11754513 512.37423104 C40.99143317 512.37390131 33.86535326 512.37654896 26.73924875 512.38740909 C20.66904647 512.39660197 14.59889074 512.39861851 8.52868444 512.39189967 C5.44324225 512.38867783 2.35788892 512.38841613 -0.72754431 512.39725292 C-22.09056491 512.44710245 -43.34312164 511.71914351 -64.19994497 506.7030009 C-72.12694648 504.68006555 -79.32017203 501.83974242 -86.54174185 497.98986614 C-93.7599693 494.00022538 -100.18584052 489.60276657 -106.38500357 484.14538372 C-107.19066763 483.47120403 -107.99633169 482.79702434 -108.82640982 482.10241497 C-115.77987348 476.12831238 -121.92698793 469.51370483 -127.38500357 462.14538372 C-132.8579462 454.25106577 -137.58981099 445.75324782 -141.10765982 436.80553997 C-145.05187851 425.99950177 -146.93890875 414.50084897 -148.17967212 403.10449207 C-149.5871414 389.67554639 -149.53595364 376.24798845 -149.53038728 362.76038015 C-149.53018064 359.62724588 -149.53572689 356.49412041 -149.54044485 353.36099041 C-149.54869608 347.24120066 -149.55149718 341.12142056 -149.55205723 335.00162572 C-149.55253511 330.0179122 -149.55460333 325.03420183 -149.55775785 320.05048931 C-149.56654999 305.8678628 -149.57117959 291.68524381 -149.57042738 277.50261456 C-149.57038742 276.7405194 -149.57034747 275.97842423 -149.5703063 275.19323528 C-149.57026542 274.4301911 -149.57022454 273.66714692 -149.57018242 272.88098019 C-149.56977655 260.5334601 -149.57933511 248.18597058 -149.59344467 235.83845931 C-149.60787471 223.10828152 -149.6147112 210.37811857 -149.61385089 197.64793241 C-149.61352116 190.52182045 -149.61616881 183.39574054 -149.62702894 176.26963603 C-149.63622182 170.19943375 -149.63823836 164.12927802 -149.63151952 158.05907172 C-149.62829769 154.97362953 -149.62803598 151.8882762 -149.63687277 148.80284297 C-149.6867223 127.43982238 -148.95876337 106.18726564 -143.94262075 85.33044231 C-141.9196854 77.4034408 -139.07936227 70.21021525 -135.22948599 62.98864543 C-131.23984523 55.77041798 -126.84238642 49.34454677 -121.38500357 43.14538372 C-120.71082388 42.33971965 -120.03664419 41.53405559 -119.34203482 40.70397747 C-113.36793223 33.7505138 -106.75332468 27.60339936 -99.38500357 22.14538372 C-91.49068562 16.67244108 -82.99286767 11.94057629 -74.04515982 8.42272747 C-63.23912162 4.47850877 -51.74046882 2.59147853 -40.34411192 1.35071516 C-26.91516624 -0.05675412 -13.4876083 -0.00556636 0 0 Z " transform="translate(149.38500356674194,-0.14538371562957764)" style="fill: #FEFEFF;"/><path d="M0 0 C1.71896484 0.00845947 1.71896484 0.00845947 3.47265625 0.01708984 C10.71639369 0.1206597 17.66050433 0.46160326 24.6875 2.27734375 C25.87662414 2.61675645 27.06404079 2.9621888 28.25 3.3125 C28.94996094 3.51117676 29.64992188 3.70985352 30.37109375 3.91455078 C39.91090395 6.67357301 49.03388238 10.07810171 57.65234375 15.05078125 C65.96856865 20.12550941 73.45037281 26.42730428 80.5 33.125 C86.65713014 39.53447153 91.96042788 46.60461764 96.40039062 54.30859375 C100.97825306 62.66259141 104.65024553 71.13770514 107.25 80.3125 C107.46269531 81.03824219 107.67539062 81.76398438 107.89453125 82.51171875 C109.65608723 88.96230865 110.24954892 95.55339853 110.453125 102.22265625 C110.59913066 112.00691923 110.25509343 121.32767952 108.0859375 130.890625 C107.80907216 132.03168349 107.53059884 133.17235388 107.25 134.3125 C107.05664062 135.17359375 106.86328125 136.0346875 106.6640625 136.921875 C104.46191785 145.4444608 100.40279591 153.58581596 96.25 161.3125 C91.74740942 169.10768804 86.10335511 176.06530935 79.97363281 182.63623047 C73.01163386 189.82387004 65.08433703 195.68640529 56.625 201 C48.63203102 205.47225645 39.98962254 208.62196586 31.25 211.3125 C26.62737323 212.56305551 21.9656522 213.48182956 17.25 214.3125 C16.46794189 214.48233398 15.68588379 214.65216797 14.88012695 214.82714844 C7.26914754 216.23164366 -0.80017737 215.80772003 -8.50341797 215.53466797 C-17.13787867 214.94380023 -25.52132831 212.9413287 -33.75 210.3125 C-39.28187904 208.37318994 -44.54736367 206.00528505 -49.75 203.3125 C-50.29833496 203.03148437 -50.84666992 202.75046875 -51.41162109 202.4609375 C-58.12397 198.95421143 -64.22356267 194.77530429 -69.953125 189.828125 C-76.59075482 183.92696051 -83.15604522 177.79704483 -88.4375 170.625 C-94.22590428 161.79379151 -99.49898662 152.32088804 -103.05810547 142.36010742 C-103.36965576 141.43935425 -103.36965576 141.43935425 -103.6875 140.5 C-103.8745752 139.95126221 -104.06165039 139.40252441 -104.25439453 138.8371582 C-106.38002418 132.05241036 -107.51105719 124.98884726 -107.97143555 117.90551758 C-108.11214001 114.3118639 -108.13721339 110.7210466 -108.125 107.125 C-108.12412384 106.49009644 -108.12324768 105.85519287 -108.12234497 105.2010498 C-108.08847828 97.73537773 -107.93661625 90.35886389 -106.1875 83.0625 C-105.47964324 80.43730148 -104.65260817 77.87675702 -103.75 75.3125 C-103.50862305 74.6127002 -103.26724609 73.91290039 -103.01855469 73.19189453 C-100.01719079 64.73333377 -96.30567269 56.78527935 -91.3684082 49.27978516 C-87.44232313 43.59917683 -82.87230339 38.56850523 -78.04492188 33.64697266 C-76.86301108 32.42896278 -75.71835021 31.17508755 -74.578125 29.91796875 C-69.8149164 24.80557757 -64.56910259 20.74384479 -58.75537109 16.91503906 C-50.74186285 11.85868417 -42.17223796 8.17111461 -33.23828125 5.06640625 C-22.18063181 1.49393489 -11.61210123 -0.06012183 0 0 Z " transform="translate(337.75,211.6875)" style="fill: #1874FF;"/><path d="M0 0 C4.48512442 0.47340158 8.72453843 1.49269416 12.97998047 2.97363281 C18.02961736 4.96740088 22.65229848 7.18227552 27.15576172 10.22753906 C31.63201767 13.65714105 35.58489829 17.34069736 39.19482422 21.67675781 C42.2085031 25.76125451 44.58278811 29.85098831 46.53076172 34.54003906 C47.75302407 37.75512046 48.5864989 40.83555482 49.15576172 44.22753906 C49.34681658 46.74887048 49.41444667 49.26917543 49.47558594 51.79663086 C49.49661377 52.54207657 49.5176416 53.28752228 49.53930664 54.05555725 C49.72183348 60.91252053 49.82829455 67.77106419 49.91145134 74.62988567 C49.96806852 79.22921283 50.04967587 83.8250495 50.19140625 88.42260742 C50.32830902 92.88322334 50.40035393 97.34067765 50.4281044 101.80326271 C50.44947337 103.49521285 50.49330425 105.18704516 50.56081772 106.87778282 C50.73369928 111.41533264 50.82442828 115.8970876 49.8910408 120.35984993 C49.6483987 120.97618734 49.40575661 121.59252476 49.15576172 122.22753906 C47.77491895 124.03959935 46.33973702 125.41251791 44.58470345 126.86297321 C42.33673828 128.48048512 40.03298468 129.94069735 37.63770676 131.32930183 C35.23363269 132.78646035 33.30691796 134.65980245 31.30517578 136.60986328 C30.88461914 137.04057129 30.4640625 137.4712793 30.03076172 137.91503906 C29.54833008 138.40504395 29.06589844 138.89504883 28.56884766 139.39990234 C20.91192678 147.39851643 14.48861825 156.55694907 8.90576172 166.10253906 C3.88609928 175.04444785 -0.26061365 184.54663274 -3.09814453 194.40722656 C-5.29257623 202.57992832 -6.75278942 210.84061621 -7.84423828 219.22753906 C-11.21642586 219.45746094 -14.22076882 219.33249723 -17.55908203 218.77050781 C-22.94763898 217.5596757 -27.95529812 215.92560014 -32.96923828 213.60253906 C-37.1536358 211.39532414 -40.66639903 208.91206996 -44.21923828 205.79003906 C-45.77766329 204.28638298 -47.32116332 202.76699117 -48.84423828 201.22753906 C-49.70662109 200.41542969 -49.70662109 200.41542969 -50.58642578 199.58691406 C-52.25458707 197.87553616 -53.55054521 196.24320815 -54.84423828 194.22753906 C-57.16167722 189.75411638 -59.36504551 185.04966942 -60.84423828 180.22753906 C-61.58595258 176.32730461 -61.97329967 172.62570949 -61.9914093 168.65818787 C-62.00214226 167.03323647 -62.00214226 167.03323647 -62.01309204 165.37545776 C-62.01593166 164.19000273 -62.01864346 163.00454739 -62.02124023 161.8190918 C-62.02751358 160.55852576 -62.03416114 159.29796155 -62.04115295 158.03739929 C-62.0620979 153.91198999 -62.0725486 149.78658073 -62.08251953 145.66113281 C-62.08657112 144.23436019 -62.09068816 142.80758775 -62.09486961 141.38081551 C-62.11390286 134.67297519 -62.12813595 127.96514572 -62.13648158 121.25728363 C-62.1462374 113.54578483 -62.17252118 105.83457433 -62.21298248 98.12317699 C-62.2432727 92.14243292 -62.25796273 86.16177087 -62.2612626 80.18095165 C-62.263599 76.61853992 -62.27237287 73.05643679 -62.29772377 69.4941082 C-62.32123624 66.13604579 -62.32514655 62.7784901 -62.31496239 59.42036629 C-62.31447243 58.19864833 -62.32063036 56.9769034 -62.33451843 55.75526428 C-62.38228958 51.29805498 -62.39477565 46.86573067 -61.48056769 42.4848187 C-60.21959133 37.48189297 -58.62897985 32.72675687 -56.23010731 28.1438055 C-53.4974437 23.51297246 -50.32121162 19.40755395 -46.65673828 15.47753906 C-43.37495898 12.37869678 -39.98190464 9.8108547 -36.15673828 7.41503906 C-31.48359131 4.78904782 -26.6482486 2.73492832 -21.47827148 1.31030273 C-14.40865189 -0.35127385 -7.22219033 -0.49916464 0 0 Z " transform="translate(211.84423828125,88.7724609375)" style="fill: #1874FF;"/><path d="M0 0 C2.64520937 -0.07889949 5.16716819 -0.03564581 7.80078125 0.23828125 C10.07139104 0.90070871 11.92204798 1.72766702 13.9765625 2.89453125 C15.98205373 4.37180959 17.58080272 5.94251553 19.23828125 7.80078125 C20.671875 9.5546875 20.671875 9.5546875 21.80078125 11.23828125 C22.29578125 12.72328125 22.29578125 12.72328125 22.80078125 14.23828125 C22.8890443 15.52997706 22.92587509 16.82565378 22.92675781 18.12036133 C22.93246796 19.28351616 22.93246796 19.28351616 22.93829346 20.47016907 C22.93932068 21.3075914 22.9403479 22.14501373 22.94140625 23.0078125 C22.95976048 24.8027468 22.97933314 26.59766897 23 28.39257812 C23.02873254 31.20520139 23.05077532 34.01705539 23.05126953 36.82983398 C22.94238906 47.19424853 22.94238906 47.19424853 24.27456665 57.43609619 C25.75074713 62.67930037 27.88387522 67.51962628 30.44726562 72.32446289 C32.9585645 76.66552469 35.8967093 80.53402192 39.29980469 84.20336914 C42.96853988 87.97162701 46.83934896 91.14535236 51.23828125 94.05078125 C56.55433744 97.23741578 62.03303225 99.96849323 67.80078125 102.23828125 C68.44644043 102.49649658 69.09209961 102.75471191 69.75732422 103.02075195 C72.09484465 103.88700953 74.38141321 104.632375 76.80078125 105.23828125 C78.58571335 105.41542199 80.37613764 105.54312992 82.16796875 105.625 C86.8005582 105.83923095 91.26015872 106.18603031 95.76904297 107.32226562 C96.4395166 107.62455078 97.10999023 107.92683594 97.80078125 108.23828125 C98.18121582 108.69267578 98.56165039 109.14707031 98.95361328 109.61523438 C99.6171875 111.28515625 99.6171875 111.28515625 100.0246582 113.14941406 C100.32993557 116.04518794 100.4808088 118.9347234 100.59570312 121.84375 C100.9611449 126.11071778 102.22424435 130.09984289 103.48828125 134.17578125 C103.87536255 135.44059326 103.87536255 135.44059326 104.27026367 136.73095703 C107.45146419 146.75813184 111.67108484 156.18668108 117.1484375 165.171875 C122.95053519 174.32513421 129.57627032 183.17973125 137.35742188 190.75341797 C139.78767484 193.02559961 142.26581173 195.23305987 144.78125 197.41015625 C145.44769531 198.0134375 146.11414063 198.61671875 146.80078125 199.23828125 C146.80078125 199.56828125 146.80078125 199.89828125 146.80078125 200.23828125 C133.75295628 200.30846988 120.70514599 200.36131757 107.6571722 200.39371777 C101.5982881 200.40916395 95.53952153 200.43021009 89.48071289 200.46459961 C83.63222706 200.49777942 77.78388849 200.51514128 71.93530464 200.52291298 C69.70541018 200.52845057 67.47552229 200.53926412 65.24567986 200.55547142 C62.11928822 200.57728881 58.99339903 200.58024632 55.86694336 200.57885742 C54.9476857 200.58964325 54.02842804 200.60042908 53.08131409 200.61154175 C50.61954169 200.59972919 48.2453679 200.52935848 45.80078125 200.23828125 C43.20209311 199.47994914 41.21311701 198.53376257 38.80078125 197.23828125 C37.65609375 196.12453125 37.65609375 196.12453125 36.48828125 194.98828125 C35.14987099 192.80716824 34.31374432 191.18438312 33.55078125 188.80078125 C33.04171593 186.63375091 32.69184092 184.50682474 32.36328125 182.30078125 C32.50765625 181.29015625 32.65203125 180.27953125 32.80078125 179.23828125 C34.18692035 176.34450878 35.83752567 173.7736856 37.80078125 171.23828125 C39.92578125 169.30078125 39.92578125 169.30078125 41.80078125 168.23828125 C42.79078125 167.90828125 43.78078125 167.57828125 44.80078125 167.23828125 C46.49028015 167.11802673 46.49028015 167.11802673 48.35424805 167.12475586 C49.40499763 167.12486916 49.40499763 167.12486916 50.47697449 167.12498474 C51.22707291 167.13014603 51.97717133 167.13530731 52.75 167.140625 C53.52261673 167.14203995 54.29523346 167.1434549 55.09126282 167.14491272 C57.55697514 167.15050659 60.0225964 167.16305792 62.48828125 167.17578125 C64.16080598 167.18079704 65.83333213 167.18535981 67.50585938 167.18945312 C71.60422991 167.19962278 75.70240373 167.21919931 79.80078125 167.23828125 C79.80078125 157.99828125 79.80078125 148.75828125 79.80078125 139.23828125 C76.50078125 138.90828125 73.20078125 138.57828125 69.80078125 138.23828125 C60.52984374 136.47000976 51.94614598 133.33186509 43.37109375 129.44311523 C34.5639248 125.30621335 26.46691666 120.41642632 18.73828125 114.48828125 C12.20678861 109.038302 5.70629936 103.29581812 0.48974609 96.54052734 C-4.73486191 89.25817693 -9.1990985 81.36403817 -12.52128601 73.03663635 C-14.69329129 67.27494859 -16.24634603 61.32153606 -17.19921875 55.23828125 C-17.78199334 48.99373755 -17.77808768 42.73793898 -17.72070312 36.47143555 C-17.69900084 33.64742585 -17.72075601 30.82589251 -17.74609375 28.00195312 C-17.74345425 26.18358821 -17.73833712 24.36522481 -17.73046875 22.546875 C-17.73856567 21.71449814 -17.7466626 20.88212128 -17.75500488 20.02452087 C-17.71779976 17.6972545 -17.60330582 15.53103509 -17.19921875 13.23828125 C-16.36820118 11.22314638 -15.41280482 9.45565616 -14.25428772 7.6124115 C-13.19921875 6.23828125 -13.19921875 6.23828125 -11.1640625 4.49609375 C-10.49503906 4.12226563 -9.82601562 3.7484375 -9.13671875 3.36328125 C-8.46511719 2.97398437 -7.79351562 2.5846875 -7.1015625 2.18359375 C-4.75371235 1.01690025 -2.61115409 0.28291368 0 0 Z " transform="translate(106.19921875,226.76171875)" style="fill: #1975FF;"/><path d="M0 0 C2.22737026 -0.25726891 2.22737026 -0.25726891 4.69932556 -0.26742554 C5.63998367 -0.27595551 6.58064178 -0.28448547 7.54980469 -0.29327393 C8.57485107 -0.29236755 9.59989746 -0.29146118 10.65600586 -0.29052734 C11.7409584 -0.29724457 12.82591095 -0.30396179 13.94374084 -0.31088257 C16.91490504 -0.32661814 19.8857897 -0.33323708 22.85697627 -0.33451414 C24.7143967 -0.33593716 26.57178795 -0.34020955 28.42920113 -0.34550858 C34.91237367 -0.36400153 41.39546406 -0.37217997 47.87866211 -0.37060547 C53.91703107 -0.3694037 59.9550428 -0.39051445 65.99332136 -0.4220928 C71.18241393 -0.44826083 76.37138985 -0.45897258 81.56054789 -0.45769465 C84.65771558 -0.45718523 87.75456558 -0.46285656 90.8516674 -0.48405075 C94.30611968 -0.5070461 97.76008327 -0.49790911 101.21459961 -0.48583984 C102.23762177 -0.49707886 103.26064392 -0.50831787 104.31466675 -0.51989746 C106.93796181 -0.49657231 109.41143918 -0.42486308 112 0 C113.73941231 0.85267258 113.73941231 0.85267258 115.11158752 1.90536499 C115.73476364 2.59659454 116.35793976 3.2878241 117 4 C117.495 4.99 117.495 4.99 118 6 C118.28310367 10.79806965 118.31369507 15.59695468 118.35009766 20.40258789 C118.36664525 22.00397283 118.39392009 23.60528427 118.43212891 25.20629883 C118.48702731 27.51943116 118.50878918 29.83083436 118.5234375 32.14453125 C118.54610687 32.85615921 118.56877625 33.56778717 118.59213257 34.30097961 C118.58656031 35.61850392 118.54070143 36.93675795 118.44598389 38.25088501 C118.22522186 39.11669693 118.22522186 39.11669693 118 40 C116.92169189 41.56332397 116.92169189 41.56332397 115.59228516 42.9284668 C113 45 113 45 111 46 C110.0925 46.12375 109.185 46.2475 108.25 46.375 C107.1775 46.25125 106.105 46.1275 105 46 C103.22762895 44.90301284 101.74880246 43.68002741 100.19921875 42.2890625 C99.80347656 41.86367188 99.40773438 41.43828125 99 41 C98.67 40.34 98.34 39.68 98 39 C97.91657841 37.55151418 97.89267139 36.09929131 97.90234375 34.6484375 C97.90484131 33.88192871 97.90733887 33.11541992 97.90991211 32.32568359 C97.91901611 31.35195801 97.92812012 30.37823242 97.9375 29.375 C97.958125 26.28125 97.97875 23.1875 98 20 C87.44 20 76.88 20 66 20 C66 50.69 66 81.38 66 113 C70.62 113 75.24 113 80 113 C81.27875 113.639375 82.5575 114.27875 83.875 114.9375 C84.29136719 115.38996094 84.70773437 115.84242188 85.13671875 116.30859375 C86 118 86 118 86.51953125 120.16015625 C86.6875 122.5 86.6875 122.5 86.53125 124.84375 C86.3559375 125.5553125 86.180625 126.266875 86 127 C84.96875 128.65625 84.96875 128.65625 83.6875 130 C82.3571875 130.99 82.3571875 130.99 81 132 C80.01 132.33 79.02 132.66 78 133 C76.51338987 133.11070139 75.0225123 133.16868104 73.53198242 133.19287109 C72.63062057 133.20893402 71.72925873 133.22499695 70.80058289 133.24154663 C66.68371445 133.28612572 62.56700461 133.32705387 58.44995117 133.35009766 C56.28024572 133.36665905 54.11059487 133.39395133 51.94116211 133.43212891 C48.80814395 133.48695613 45.67640233 133.50878011 42.54296875 133.5234375 C41.09424629 133.55744156 41.09424629 133.55744156 39.61625671 133.59213257 C36.98435696 133.58389711 34.58409747 133.50127603 32 133 C30.04533386 131.92388916 30.04533386 131.92388916 28.39794922 130.59619141 C27.0307312 129.27676392 27.0307312 129.27676392 26 128 C25.69964844 127.319375 25.39929688 126.63875 25.08984375 125.9375 C24.93044777 123.91031015 24.81527686 122.02784954 25 120 C25.4125 119.05125 25.825 118.1025 26.25 117.125 C26.8275 116.42375 27.405 115.7225 28 115 C28.99 114.34 29.98 113.68 31 113 C35.95 113 40.9 113 46 113 C46 81.98 46 50.96 46 19 C35.11 19 24.22 19 13 19 C13.19708451 25.68695395 13.19708451 25.68695395 13.45043945 32.37182617 C13.48938144 34.99199383 13.4402632 37.41418393 13 40 C11.93505859 41.75634766 11.93505859 41.75634766 10.60546875 43.11328125 C8 45 8 45 6 46 C4.63875 46.185625 4.63875 46.185625 3.25 46.375 C2.1775 46.25125 1.105 46.1275 0 46 C-1.77237105 44.90301284 -3.25119754 43.68002741 -4.80078125 42.2890625 C-5.19652344 41.86367188 -5.59226562 41.43828125 -6 41 C-6.33 40.34 -6.66 39.68 -7 39 C-7.12271922 36.65029882 -7.18830075 34.33132395 -7.203125 31.98046875 C-7.20882507 31.28488358 -7.21452515 30.5892984 -7.22039795 29.87263489 C-7.22984882 28.3990735 -7.23638228 26.92549096 -7.24023438 25.4519043 C-7.24991811 23.20648855 -7.28092957 20.96199688 -7.3125 18.71679688 C-7.31903252 17.28385959 -7.32428202 15.85091577 -7.328125 14.41796875 C-7.3404718 13.75008835 -7.3528186 13.08220795 -7.36553955 12.39408875 C-7.35644531 10.47338867 -7.35644531 10.47338867 -7 7 C-6.58073242 6.06325439 -6.16146484 5.12650879 -5.72949219 4.16137695 C-4.87339355 3.09149536 -4.87339355 3.09149536 -4 2 C-2.18561459 0.88162804 -2.18561459 0.88162804 0 0 Z " transform="translate(283,258)" style="fill: #FBFCFF;"/></svg>